inDegrees=no
num_controls=7
num_derivatives=13
num_iterations=77
num_multipliers=7
num_parameters=0
num_slacks=7
num_states=26
objective=0.455759
objective_accelerations=0.044207
objective_balance=0.002278
objective_effort=0.035338
objective_height=0.368159
objective_ligament=0.005776
solver_duration=942.434397
status=Solve_Succeeded
success=true
DataType=double
version=3
OpenSimVersion=4.5
endheader
time	/jointset/ground_pelvis/pelvis_tilt/value	/jointset/ground_pelvis/pelvis_tx/value	/jointset/ground_pelvis/pelvis_ty/value	/jointset/hip_r/hip_flexion_r/value	/jointset/hip_r/hip_adduction_r/value	/jointset/hip_r/hip_rotation_r/value	/jointset/back/lumbar_extension/value	/jointset/patellofemoral_r/patellar_flexion_r/value	/jointset/knee_r/knee_flexion_r/value	/jointset/knee_r/knee_adduction_r/value	/jointset/knee_r/knee_rotation_r/value	/jointset/ankle_r/ankle_angle_r/value	/jointset/subtalar_r/subtalar_angle_r/value	/jointset/ground_pelvis/pelvis_tilt/speed	/jointset/ground_pelvis/pelvis_tx/speed	/jointset/ground_pelvis/pelvis_ty/speed	/jointset/hip_r/hip_flexion_r/speed	/jointset/hip_r/hip_adduction_r/speed	/jointset/hip_r/hip_rotation_r/speed	/jointset/back/lumbar_extension/speed	/jointset/patellofemoral_r/patellar_flexion_r/speed	/jointset/knee_r/knee_flexion_r/speed	/jointset/knee_r/knee_adduction_r/speed	/jointset/knee_r/knee_rotation_r/speed	/jointset/ankle_r/ankle_angle_r/speed	/jointset/subtalar_r/subtalar_angle_r/speed	/forceset/tau_hip_flexion_r	/forceset/tau_hip_adduction_r	/forceset/tau_hip_rotation_r	/forceset/tau_knee_flexion_r	/forceset/tau_ankle_angle_r	/forceset/tau_subtalar_angle_r	/forceset/tau_lumbar_extension	lambda_cid13_p0	lambda_cid14_p0	lambda_cid14_p1	lambda_cid14_p2	lambda_cid14_p3	lambda_cid14_p4	lambda_cid14_p5	/jointset/ground_pelvis/pelvis_tilt/accel	/jointset/ground_pelvis/pelvis_tx/accel	/jointset/ground_pelvis/pelvis_ty/accel	/jointset/hip_r/hip_flexion_r/accel	/jointset/hip_r/hip_adduction_r/accel	/jointset/hip_r/hip_rotation_r/accel	/jointset/back/lumbar_extension/accel	/jointset/patellofemoral_r/patellar_flexion_r/accel	/jointset/knee_r/knee_flexion_r/accel	/jointset/knee_r/knee_adduction_r/accel	/jointset/knee_r/knee_rotation_r/accel	/jointset/ankle_r/ankle_angle_r/accel	/jointset/subtalar_r/subtalar_angle_r/accel	gamma_cid13_p0	gamma_cid14_p0	gamma_cid14_p1	gamma_cid14_p2	gamma_cid14_p3	gamma_cid14_p4	gamma_cid14_p5
0.5	-0.1359001723958062	0.03809223548130997	0.8167480307797532	0.8506890379987583	-0.2200723136203794	-0.1378721798324318	-0.6404700141121412	0.9202450732742742	0.9202450732742659	-0.05512314286463761	0.1743966426892267	0.2984882602383545	0.1448359112453754	-0.3597266745904398	-0.1923734268614412	-0.4595517437088276	1.767570391061522	-0.01533842306494534	0.1525982162953203	-0.735558844968409	1.830589196654715	1.83058919665473	-0.4533824301161523	-0.001174628841917283	0.531015898004899	0.1917701232523402	-0.1940303306560011	0.02150185907391674	0.01470863545114941	-0.2688450280427402	-0.02314757471132619	-0.002364692479809329	0.2365487162865542	-10.34422914689497	-50.16421735067964	-8.555489031844759	0.3525286208296323	-0.325336378036757	-641.8782591856772	54.87317801068982	0.2334557429517809	0.4839710857943272	-0.3873163199631565	-1.123822851323091	-0.2256399593585273	-0.6288105351232531	1.676274052354259	-1.34705548513358	-1.347055485133582	0.4073352568047131	-0.009222112991853649	-0.6144043072778054	-0.3923026490564342	-9.384331227206804e-08	-1.369649818541678e-07	3.544878048531662e-08	-1.513550786137824e-06	7.568493940995218e-08	-2.210827377276092e-07	1.852921250500343e-07
0.51	-0.1394849958119513	0.03619289514297685	0.8121341885749098	0.8683058370464476	-0.2202375810137236	-0.13637556990961	-0.6477411439816165	0.9384812537575549	0.9384812537575714	-0.05963339406826478	0.1743842832204451	0.3037666755509991	0.146732440073181	-0.3571790609176054	-0.1874772358163117	-0.4631143265176524	1.755552456255181	-0.01770233978001751	0.1467626133220804	-0.7185812408789024	1.816405125338457	1.816405125338365	-0.4486112884753313	-0.001312245028880004	0.5245914941528477	0.1875049466356488	-0.200279380670951	0.02273353873269226	0.01488211124109831	-0.2730758853092383	-0.02447010366762607	-0.001948391573523922	0.242332975797352	-9.390683280891045	-50.87514503724698	-8.682413325479342	0.5820743418680506	-0.2460371489658966	-646.3984368137599	54.95518325980631	0.2742413501637547	0.4950703267290447	-0.3254181740997587	-1.276343213552225	-0.2400935377516925	-0.555312203022051	1.721386794457771	-1.490329932534969	-1.490329932550952	0.5204699768921093	-0.01858227516809213	-0.6678136636633824	-0.4484161181414215	-9.463948384227169e-08	-1.158020873947229e-07	2.358979476482401e-07	-1.315233868770964e-06	4.178692409594695e-08	-2.034407095669699e-07	2.912664586154196e-07
0.52	-0.1430425776572186	0.03434304215766634	0.8074877827594266	0.8857953438624266	-0.2204261527762376	-0.134936191421453	-0.6548399211687548	0.956568344132151	0.9565683441321701	-0.06409424058363178	0.1743700374090644	0.308978575777224	0.1485853589447884	-0.3542783604161963	-0.1824759562569196	-0.4660644658368037	1.742111944718333	-0.01999929690190579	0.141151929364936	-0.7010883085010398	1.800771174915678	1.80077117491548	-0.4435014924676644	-0.001551897360623629	0.5177128807210134	0.1830481320123188	-0.2065284306859051	0.02396521839147211	0.01505558703099849	-0.2773067425757443	-0.02579263262392528	-0.001532090667229801	0.2481172353081476	-8.458062037909803	-51.58672684223912	-8.807171918269889	0.8086700328388773	-0.1874096277003223	-650.9264513455183	55.09544315738362	0.3040731086667376	0.5049887886468389	-0.2648276220284305	-1.408338197424522	-0.2122480407217842	-0.5838267319041881	1.779339710025503	-1.637031306437702	-1.6370313064376	0.4750661301739134	-0.02962934194800116	-0.7052462232344127	-0.4306302503841667	-9.166859591715506e-08	-5.993185800053744e-08	7.068840320812195e-07	-7.901980947679479e-07	-4.011214159085645e-08	-1.646897547898801e-07	5.633421109576938e-07
0.53	-0.1465694101722395	0.03254363845908654	0.8028149865437714	0.9031434218005022	-0.2206372886864807	-0.1335532219090945	-0.6617614143134165	0.9744917272025655	0.9744917272025791	-0.06850342937468254	0.1743538617554101	0.3141194043239079	0.1503928475898212	-0.3510323116517796	-0.1773953125274086	-0.4683884018512315	1.727274709858001	-0.02222489631461519	0.1355456088786518	-0.6831434830696513	1.783675637135059	1.783675637135045	-0.43820755899286	-0.001715387137503594	0.510372388176133	0.1783981491756438	-0.2126735230737695	0.02521419361874222	0.01530664120818787	-0.2816331845591004	-0.02719540010859864	-0.001302036166509291	0.2537662485271371	-7.576998767503291	-52.35101280233872	-9.034053573146869	1.065262536834718	0.003079885315891452	-655.5400671676089	55.09231050732514	0.3432430405441398	0.5110061788269653	-0.2002491418366196	-1.555759868155507	-0.2272902405610714	-0.5336319224492271	1.812079563991798	-1.780267296796014	-1.78026729676861	0.5759879136420174	-0.01460129788198489	-0.7605510036605794	-0.4898107158457214	-8.13644438276688e-08	-7.830655040824409e-09	1.042351208743183e-06	-3.049085549940176e-07	-1.054851312110752e-07	-1.257673996776057e-07	7.648519031593495e-07
